<?xml version="1.0" encoding="UTF-8" standalone="no"?>
<!-- Created with Inkscape (http://www.inkscape.org/) -->

<svg
   xmlns:dc="http://purl.org/dc/elements/1.1/"
   xmlns:cc="http://creativecommons.org/ns#"
   xmlns:rdf="http://www.w3.org/1999/02/22-rdf-syntax-ns#"
   xmlns:svg="http://www.w3.org/2000/svg"
   xmlns="http://www.w3.org/2000/svg"
   xmlns:sodipodi="http://sodipodi.sourceforge.net/DTD/sodipodi-0.dtd"
   xmlns:inkscape="http://www.inkscape.org/namespaces/inkscape"
   height="425.2879"
   width="349.35001"
   version="1.1"
   id="svg3072"
   inkscape:version="0.48.4 r9939"
   sodipodi:docname="logo.svg">
  <sodipodi:namedview
     pagecolor="#ffffff"
     bordercolor="#666666"
     borderopacity="1"
     objecttolerance="10"
     gridtolerance="10"
     guidetolerance="10"
     inkscape:pageopacity="0"
     inkscape:pageshadow="2"
     inkscape:window-width="640"
     inkscape:window-height="480"
     id="namedview3119"
     showgrid="false"
     fit-margin-top="0"
     fit-margin-left="0"
     fit-margin-right="0"
     fit-margin-bottom="0"
     inkscape:zoom="0.48"
     inkscape:cx="182.82286"
     inkscape:cy="187.4451"
     inkscape:window-x="497"
     inkscape:window-y="262"
     inkscape:window-maximized="0"
     inkscape:current-layer="svg3072" />
  <defs
     id="defs3074">
    <clipPath
       id="clipPath3865-9"
       clipPathUnits="userSpaceOnUse">
      <rect
         height="891.29999"
         width="516"
         y="365.60001"
         x="64.050003"
         id="rect3077"
         style="fill:#212121" />
    </clipPath>
    <clipPath
       id="clipPath3865-9-2-3"
       clipPathUnits="userSpaceOnUse">
      <rect
         height="891.29999"
         width="516"
         y="365.60001"
         x="64.050003"
         id="rect3080"
         style="fill:#212121" />
    </clipPath>
    <clipPath
       id="clipPath3865-9-2-3-1"
       clipPathUnits="userSpaceOnUse">
      <rect
         height="891.29999"
         width="516"
         y="365.60001"
         x="64.050003"
         id="rect3083"
         style="fill:#212121" />
    </clipPath>
  </defs>
  <metadata
     id="metadata3085">
    <rdf:RDF>
      <cc:Work
         rdf:about="">
        <dc:format>image/svg+xml</dc:format>
        <dc:type
           rdf:resource="http://purl.org/dc/dcmitype/StillImage" />
        <dc:title></dc:title>
      </cc:Work>
    </rdf:RDF>
  </metadata>
  <g
     transform="translate(-125.308,-570.2)"
     id="g3087">
    <g
       clip-path="url(#clipPath3865-9)"
       transform="matrix(0.20075697,0,0,0.22767818,235.57615,712.427)"
       stroke-miterlimit="4"
       id="g3089"
       style="fill:#ffffff;stroke:#6f6f6f;stroke-width:4.67739439;stroke-miterlimit:4;stroke-dasharray:none">
      <title
         id="title3091">Layer 1</title>
      <path
         d="M 256.1,368 140.9,773.7 284.9,696.9 183.3,1039 279.2,985.4 217.5,1242 481,820.4 340.3,903.5 500.9,520.2 345.8,609.3 469.5,235.7 256.1,368 z"
         stroke-miterlimit="4"
         id="path3093"
         inkscape:connector-curvature="0"
         style="fill:#ffffff;fill-rule:evenodd;stroke:#6f6f6f;stroke-width:4.67739439;stroke-miterlimit:4;stroke-dasharray:none" />
    </g>
    <g
       clip-path="url(#clipPath3865-9-2-3)"
       transform="matrix(0.14052988,0,0,0.15937473,345.81704,737.39677)"
       stroke-miterlimit="4"
       id="g3095"
       style="fill:#ffffff;stroke:#6f6f6f;stroke-width:6.68199158;stroke-miterlimit:4;stroke-dasharray:none">
      <title
         id="title3097">Layer 1</title>
      <path
         d="M 256.1,368 140.9,773.7 284.9,696.9 183.3,1039 279.2,985.4 217.5,1242 481,820.4 340.3,903.5 500.9,520.2 345.8,609.3 469.5,235.7 256.1,368 z"
         stroke-miterlimit="4"
         id="path3099"
         inkscape:connector-curvature="0"
         style="fill:#ffffff;fill-rule:evenodd;stroke:#6f6f6f;stroke-width:6.68199158;stroke-miterlimit:4;stroke-dasharray:none" />
    </g>
    <g
       clip-path="url(#clipPath3865-9-2-3)"
       transform="matrix(0.14052988,0,0,0.15937473,411.49227,471.69386)"
       id="g3101"
       style="fill:#ffffff">
      <title
         id="title3103">Layer 1</title>
    </g>
    <g
       clip-path="url(#clipPath3865-9-2-3-1)"
       transform="matrix(0.14052988,0,0,0.15937473,163.98959,737.39677)"
       stroke-miterlimit="4"
       id="g3105"
       style="fill:#ffffff;stroke:#6f6f6f;stroke-width:6.68199158;stroke-miterlimit:4;stroke-dasharray:none">
      <title
         id="title3107">Layer 1</title>
      <path
         d="M 256.1,368 140.9,773.7 284.9,696.9 183.3,1039 279.2,985.4 217.5,1242 481,820.4 340.3,903.5 500.9,520.2 345.8,609.3 469.5,235.7 256.1,368 z"
         stroke-miterlimit="4"
         id="path3109"
         inkscape:connector-curvature="0"
         style="fill:#ffffff;fill-rule:evenodd;stroke:#6f6f6f;stroke-width:6.68199158;stroke-miterlimit:4;stroke-dasharray:none" />
    </g>
    <path
       d="m 310.9,570.2 c -19.56,0 -37.3,4.733 -53.22,14.16 -15.92,9.423 -27.74,21.9 -35.47,37.47 -5.458,-1.639 -10.48,-2.469 -15.03,-2.469 -13.65,0 -25.23,4.303 -34.78,12.91 -9.552,8.604 -14.34,19.05 -14.34,31.34 0,4.507 0.9305,9.025 2.75,13.53 -10.92,5.736 -19.57,13.51 -25.94,23.34 -6.368,9.833 -9.562,20.5 -9.562,31.97 0,17.62 6.939,32.66 20.81,45.16 13.871,12.5 30.6,18.75 50.16,18.75 h 196.5 c 22.74,0 42.08,-7.161 58,-21.5 15.92,-14.339 23.88,-31.77 23.88,-52.25 -2.4e-4,-18.03 -6.241,-33.79 -18.75,-47.31 -12.509,-13.52 -28.33,-21.91 -47.44,-25.19 -2.729,-22.53 -13.3,-41.48 -31.72,-56.84 -18.42,-15.36 -40.37,-23.06 -65.84,-23.06 z"
       id="path3111"
       inkscape:connector-curvature="0"
       style="fill:#212121" />
    <path
       d="m 307.6,638.1 c -13.69,0 -26.11,3.313 -37.25,9.909 -11.14,6.596 -19.42,15.33 -24.83,26.23 -3.821,-1.147 -7.338,-1.728 -10.52,-1.728 -9.552,0 -17.66,3.012 -24.35,9.034 -6.687,6.022 -10.04,13.34 -10.04,21.94 0,3.155 0.6514,6.317 1.925,9.472 -7.642,4.015 -13.7,9.458 -18.16,16.34 -4.458,6.883 -6.694,14.35 -6.694,22.38 0,12.33 4.857,22.86 14.57,31.61 9.712,8.747 21.42,13.12 35.11,13.12 h 137.6 c 15.92,0 29.46,-5.012 40.6,-15.05 11.14,-10.038 16.71,-22.24 16.71,-36.58 -1.7e-4,-12.62 -4.369,-23.65 -13.12,-33.12 -8.756,-9.464 -19.83,-15.34 -33.21,-17.63 -1.91,-15.77 -9.308,-29.04 -22.2,-39.79 -12.9,-10.75 -28.26,-16.14 -46.09,-16.14 z"
       id="path3113"
       inkscape:connector-curvature="0"
       style="fill:#ffffff" />
    <path
       d="m 305.1,691.6 c -9.057,0 -17.27,2.192 -24.64,6.555 -7.372,4.363 -12.84,10.14 -16.42,17.35 -2.528,-0.7588 -4.854,-1.143 -6.96,-1.143 -6.319,0 -11.68,1.992 -16.11,5.976 -4.423,3.984 -6.642,8.822 -6.642,14.51 0,2.087 0.4309,4.179 1.273,6.266 -5.055,2.656 -9.062,6.256 -12.01,10.81 -2.949,4.553 -4.428,9.491 -4.428,14.8 0,8.157 3.213,15.12 9.637,20.91 6.424,5.786 14.17,8.682 23.22,8.682 h 90.99 c 10.53,0 19.48,-3.316 26.86,-9.956 7.372,-6.64 11.06,-14.71 11.06,-24.19 -1.3e-4,-8.347 -2.89,-15.65 -8.682,-21.91 -5.792,-6.26 -13.12,-10.15 -21.97,-11.66 -1.264,-10.43 -6.157,-19.21 -14.69,-26.32 -8.53,-7.114 -18.69,-10.68 -30.49,-10.68 z"
       id="path3115"
       inkscape:connector-curvature="0"
       style="fill:#212121" />
    <path
       d="m 302.7,739.8 c -4.891,0 -9.326,1.184 -13.31,3.54 -3.981,2.356 -6.935,5.476 -8.869,9.369 -1.365,-0.4098 -2.621,-0.6173 -3.759,-0.6173 -3.412,0 -6.308,1.076 -8.697,3.227 -2.389,2.151 -3.587,4.764 -3.587,7.837 0,1.127 0.2327,2.257 0.6876,3.383 -2.73,1.434 -4.893,3.378 -6.486,5.837 -1.592,2.459 -2.391,5.125 -2.391,7.994 0,4.405 1.735,8.167 5.204,11.29 3.469,3.124 7.651,4.688 12.54,4.688 h 49.13 c 5.687,0 10.52,-1.79 14.5,-5.376 3.981,-3.586 5.97,-7.943 5.97,-13.06 -6e-5,-4.507 -1.561,-8.45 -4.688,-11.83 -3.128,-3.381 -7.085,-5.478 -11.86,-6.298 -0.6824,-5.634 -3.325,-10.37 -7.931,-14.21 -4.606,-3.842 -10.09,-5.767 -16.46,-5.767 z"
       stroke-miterlimit="4"
       id="path3117"
       inkscape:connector-curvature="0"
       style="fill:#ffffff;stroke:#ffffff;stroke-width:1;stroke-miterlimit:4;stroke-dasharray:none" />
  </g>
</svg>
